<?xml version="1.0" encoding="UTF-8"?>
<!DOCTYPE svg PUBLIC "-//W3C//DTD SVG 1.1//EN" "http://www.w3.org/Graphics/SVG/1.1/DTD/svg11.dtd">
<svg xmlns="http://www.w3.org/2000/svg" version="1.1" width="575px" height="501px" style="shape-rendering:geometricPrecision; text-rendering:geometricPrecision; image-rendering:optimizeQuality; fill-rule:evenodd; clip-rule:evenodd" xmlns:xlink="http://www.w3.org/1999/xlink">
<g><path style="opacity:1" fill="#ed2b23" d="M 458.5,64.5 C 439.368,44.8681 420.035,25.3681 400.5,6C 401.056,5.61742 401.389,5.11742 401.5,4.5C 413.732,-1.72575 425.232,-0.725753 436,7.5C 440.78,14.7257 444.78,22.3923 448,30.5C 453.333,38.5 458.667,46.5 464,54.5C 465.31,57.503 465.476,60.503 464.5,63.5C 462.591,64.3482 460.591,64.6816 458.5,64.5 Z"/></g>
<g><path style="opacity:1" fill="#ee3722" d="M 401.5,4.5 C 401.389,5.11742 401.056,5.61742 400.5,6C 420.035,25.3681 439.368,44.8681 458.5,64.5C 453.156,64.666 447.823,64.4994 442.5,64C 424.579,46.5816 407.246,28.7483 390.5,10.5C 393.678,7.74169 397.345,5.74169 401.5,4.5 Z"/></g>
<g><path style="opacity:1" fill="#ef4523" d="M 390.5,10.5 C 407.246,28.7483 424.579,46.5816 442.5,64C 447.823,64.4994 453.156,64.666 458.5,64.5C 449.848,65.0285 441.181,65.8619 432.5,67C 434.888,68.8605 437.554,70.1939 440.5,71C 449.588,72.6175 458.588,74.6175 467.5,77C 470.145,78.2865 471.145,80.4532 470.5,83.5C 462.857,86.5933 454.857,87.9266 446.5,87.5C 424.368,64.868 402.035,42.368 379.5,20C 378.231,20.1085 377.231,19.9418 376.5,19.5C 380.624,15.7191 385.291,12.7191 390.5,10.5 Z"/></g>
<g><path style="opacity:0.999" fill="#ef4e23" d="M 376.5,19.5 C 377.231,19.9418 378.231,20.1085 379.5,20C 402.035,42.368 424.368,64.868 446.5,87.5C 443.167,87.5 439.833,87.5 436.5,87.5C 433.023,86.6773 429.356,86.1773 425.5,86C 405.291,66.3002 385.957,46.4669 367.5,26.5C 370.19,23.8154 373.19,21.4821 376.5,19.5 Z"/></g>
<g><path style="opacity:1" fill="#f05823" d="M 367.5,26.5 C 385.957,46.4669 405.291,66.3002 425.5,86C 429.356,86.1773 433.023,86.6773 436.5,87.5C 430.158,87.3338 423.825,87.5005 417.5,88C 431.242,94.4725 445.575,96.1391 460.5,93C 463.862,91.6574 466.862,89.824 469.5,87.5C 467.629,92.9148 465.462,98.2482 463,103.5C 459.225,105.26 455.392,106.927 451.5,108.5C 449.164,110.073 449.164,111.406 451.5,112.5C 446.399,119.771 440.732,126.604 434.5,133C 431.953,135.054 429.286,136.887 426.5,138.5C 423.167,134.833 419.833,131.167 416.5,127.5C 425.263,127.531 433.596,125.698 441.5,122C 448.802,114.458 447.468,112.625 437.5,116.5C 409.914,90.5813 382.914,63.9146 356.5,36.5C 359.558,32.4754 363.225,29.1421 367.5,26.5 Z"/></g>
<g><path style="opacity:1" fill="#f16022" d="M 356.5,36.5 C 382.914,63.9146 409.914,90.5813 437.5,116.5C 430.877,117.38 424.211,117.713 417.5,117.5C 393.833,93.1667 369.833,69.1667 345.5,45.5C 348.871,42.1285 352.537,39.1285 356.5,36.5 Z"/></g>
<g><path style="opacity:1" fill="#f16622" d="M 345.5,45.5 C 369.833,69.1667 393.833,93.1667 417.5,117.5C 413.5,117.5 409.5,117.5 405.5,117.5C 383.5,94.8333 361.167,72.5 338.5,50.5C 340.531,48.4776 342.865,46.8109 345.5,45.5 Z"/></g>
<g><path style="opacity:0.995" fill="#f36c21" d="M 338.5,50.5 C 361.167,72.5 383.5,94.8333 405.5,117.5C 397.167,117.5 388.833,117.5 380.5,117.5C 382.631,116.686 384.964,116.186 387.5,116C 366.965,95.6319 346.632,75.1319 326.5,54.5C 329.806,50.8361 333.806,49.5027 338.5,50.5 Z"/></g>
<g><path style="opacity:1" fill="#f37321" d="M 326.5,54.5 C 346.632,75.1319 366.965,95.6319 387.5,116C 384.964,116.186 382.631,116.686 380.5,117.5C 379.127,117.343 377.793,117.51 376.5,118C 389.229,123.682 402.562,126.849 416.5,127.5C 419.833,131.167 423.167,134.833 426.5,138.5C 419.531,143.483 411.864,147.15 403.5,149.5C 374.5,120.833 345.5,92.1667 316.5,63.5C 319.211,59.7881 322.544,56.7881 326.5,54.5 Z"/></g>
<g><path style="opacity:1" fill="#f47a20" d="M 316.5,63.5 C 345.5,92.1667 374.5,120.833 403.5,149.5C 400.381,150.87 397.048,151.87 393.5,152.5C 366.167,124.5 338.5,96.8333 310.5,69.5C 312.167,67.1667 314.167,65.1667 316.5,63.5 Z"/></g>
<g><path style="opacity:1" fill="#f57f20" d="M 310.5,69.5 C 338.5,96.8333 366.167,124.5 393.5,152.5C 388.939,153.811 384.272,154.478 379.5,154.5C 373.587,153.985 373.253,152.985 378.5,151.5C 380.921,151.122 383.254,150.455 385.5,149.5C 386.289,149.217 386.956,148.717 387.5,148C 384.854,147.503 382.187,147.336 379.5,147.5C 375.106,147.156 370.772,146.49 366.5,145.5C 356.833,135.167 346.833,125.167 336.5,115.5C 336.5,115.167 336.5,114.833 336.5,114.5C 325.228,103.729 314.062,92.7293 303,81.5C 302.805,80.1807 302.972,78.8474 303.5,77.5C 305.372,74.4181 307.705,71.7514 310.5,69.5 Z"/></g>
<g><path style="opacity:1" fill="#f6881f" d="M 303.5,77.5 C 302.972,78.8474 302.805,80.1807 303,81.5C 314.062,92.7293 325.228,103.729 336.5,114.5C 330.853,119.143 325.186,123.81 319.5,128.5C 308.42,118.924 297.753,108.757 287.5,98C 286.231,98.1085 285.231,97.9418 284.5,97.5C 290.861,90.807 297.194,84.1403 303.5,77.5 Z"/></g>
<g><path style="opacity:1" fill="#fffbf8" d="M 470.5,83.5 C 470.768,85.099 470.434,86.4324 469.5,87.5C 466.862,89.824 463.862,91.6574 460.5,93C 445.575,96.1391 431.242,94.4725 417.5,88C 423.825,87.5005 430.158,87.3338 436.5,87.5C 439.833,87.5 443.167,87.5 446.5,87.5C 454.857,87.9266 462.857,86.5933 470.5,83.5 Z"/></g>
<g><path style="opacity:0.998" fill="#f7961e" d="M 284.5,97.5 C 285.231,97.9418 286.231,98.1085 287.5,98C 297.753,108.757 308.42,118.924 319.5,128.5C 312.825,135.175 305.825,141.508 298.5,147.5C 286.586,137.09 275.086,126.09 264,114.5C 263.329,115.252 262.496,115.586 261.5,115.5C 269.309,109.752 276.976,103.752 284.5,97.5 Z"/></g>
<g><path style="opacity:1" fill="#f9a31b" d="M 298.5,147.5 C 293.448,153.519 287.781,158.852 281.5,163.5C 269.5,151.167 257.5,138.833 245.5,126.5C 250.477,122.342 255.811,118.676 261.5,115.5C 262.496,115.586 263.329,115.252 264,114.5C 275.086,126.09 286.586,137.09 298.5,147.5 Z"/></g>
<g><path style="opacity:1" fill="#f68a20" d="M 336.5,115.5 C 346.833,125.167 356.833,135.167 366.5,145.5C 341.6,141.78 341.267,143.614 365.5,151C 369.821,151.499 374.154,151.666 378.5,151.5C 373.253,152.985 373.587,153.985 379.5,154.5C 374.015,155.327 368.348,155.827 362.5,156C 376.078,170.06 392.078,173.727 410.5,167C 411.667,165.833 412.833,164.667 414,163.5C 414.167,164.167 414.333,164.833 414.5,165.5C 409.625,177.52 400.625,184.02 387.5,185C 389.167,185.333 390.833,185.667 392.5,186C 388.633,188.433 384.633,190.6 380.5,192.5C 361.587,172.085 342.087,152.085 322,132.5C 321.536,131.906 321.369,131.239 321.5,130.5C 326.167,125.167 331.167,120.167 336.5,115.5 Z"/></g>
<g><path style="opacity:1" fill="#fbaa19" d="M 245.5,126.5 C 257.5,138.833 269.5,151.167 281.5,163.5C 277.859,166.805 274.192,170.138 270.5,173.5C 258.5,160.5 246.5,147.5 234.5,134.5C 237.601,131.067 241.268,128.4 245.5,126.5 Z"/></g>
<g><path style="opacity:1" fill="#fffbf5" d="M 336.5,114.5 C 336.5,114.833 336.5,115.167 336.5,115.5C 331.167,120.167 326.167,125.167 321.5,130.5C 317.475,133.558 314.142,137.225 311.5,141.5C 303.487,148.513 296.153,156.18 289.5,164.5C 296.94,165.054 304.273,166.221 311.5,168C 324.486,172.606 337.486,177.106 350.5,181.5C 357.062,182.967 363.728,183.801 370.5,184C 365.599,185.325 360.599,185.825 355.5,185.5C 348.996,185.299 342.663,184.133 336.5,182C 326.324,177.665 315.991,173.831 305.5,170.5C 299.52,167.573 293.186,166.573 286.5,167.5C 283.145,171.187 279.811,174.853 276.5,178.5C 270.359,184.795 264.692,191.462 259.5,198.5C 251.132,206.902 243.465,215.902 236.5,225.5C 223.054,240.281 210.72,255.948 199.5,272.5C 192.769,280.947 186.769,289.947 181.5,299.5C 175.026,310.437 168.526,321.437 162,332.5C 166.55,320.719 171.716,309.052 177.5,297.5C 183.324,287.857 188.657,277.857 193.5,267.5C 199.072,257.921 205.072,248.587 211.5,239.5C 221.745,225.584 232.745,212.251 244.5,199.5C 250.833,193.833 256.833,187.833 262.5,181.5C 265.5,179.167 268.167,176.5 270.5,173.5C 274.192,170.138 277.859,166.805 281.5,163.5C 287.781,158.852 293.448,153.519 298.5,147.5C 305.825,141.508 312.825,135.175 319.5,128.5C 325.186,123.81 330.853,119.143 336.5,114.5 Z"/></g>
<g><path style="opacity:1" fill="#f7921f" d="M 321.5,130.5 C 321.369,131.239 321.536,131.906 322,132.5C 342.087,152.085 361.587,172.085 380.5,192.5C 376.5,194.833 372.5,197.167 368.5,199.5C 364.167,194.833 359.833,190.167 355.5,185.5C 360.599,185.825 365.599,185.325 370.5,184C 363.728,183.801 357.062,182.967 350.5,181.5C 337.5,168.167 324.5,154.833 311.5,141.5C 314.142,137.225 317.475,133.558 321.5,130.5 Z"/></g>
<g><path style="opacity:0.993" fill="#fcb216" d="M 234.5,134.5 C 246.5,147.5 258.5,160.5 270.5,173.5C 268.167,176.5 265.5,179.167 262.5,181.5C 250.035,169.535 237.702,157.369 225.5,145C 224.906,144.536 224.239,144.369 223.5,144.5C 226.563,140.434 230.229,137.101 234.5,134.5 Z"/></g>
<g><path style="opacity:1" fill="#f89b20" d="M 311.5,141.5 C 324.5,154.833 337.5,168.167 350.5,181.5C 337.486,177.106 324.486,172.606 311.5,168C 304.273,166.221 296.94,165.054 289.5,164.5C 296.153,156.18 303.487,148.513 311.5,141.5 Z"/></g>
<g><path style="opacity:1" fill="#fffaf4" d="M 366.5,145.5 C 370.772,146.49 375.106,147.156 379.5,147.5C 381.5,148.167 383.5,148.833 385.5,149.5C 383.254,150.455 380.921,151.122 378.5,151.5C 374.154,151.666 369.821,151.499 365.5,151C 341.267,143.614 341.6,141.78 366.5,145.5 Z"/></g>
<g><path style="opacity:0.894" fill="#fcc492" d="M 379.5,147.5 C 382.187,147.336 384.854,147.503 387.5,148C 386.956,148.717 386.289,149.217 385.5,149.5C 383.5,148.833 381.5,148.167 379.5,147.5 Z"/></g>
<g><path style="opacity:0.997" fill="#febc12" d="M 223.5,144.5 C 224.239,144.369 224.906,144.536 225.5,145C 237.702,157.369 250.035,169.535 262.5,181.5C 256.833,187.833 250.833,193.833 244.5,199.5C 233.553,186.886 221.887,174.886 209.5,163.5C 213.427,156.58 218.093,150.247 223.5,144.5 Z"/></g>
<g><path style="opacity:1" fill="#faa81a" d="M 305.5,170.5 C 305.062,170.435 304.728,170.601 304.5,171C 318.369,184.701 332.035,198.535 345.5,212.5C 336.932,216.559 327.932,219.226 318.5,220.5C 304.833,206.167 290.833,192.167 276.5,178.5C 279.811,174.853 283.145,171.187 286.5,167.5C 293.186,166.573 299.52,167.573 305.5,170.5 Z"/></g>
<g><path style="opacity:1" fill="#f89d1d" d="M 305.5,170.5 C 315.991,173.831 326.324,177.665 336.5,182C 342.663,184.133 348.996,185.299 355.5,185.5C 359.833,190.167 364.167,194.833 368.5,199.5C 360.996,204.087 353.329,208.42 345.5,212.5C 332.035,198.535 318.369,184.701 304.5,171C 304.728,170.601 305.062,170.435 305.5,170.5 Z"/></g>
<g><path style="opacity:0.997" fill="#fec00f" d="M 209.5,163.5 C 221.887,174.886 233.553,186.886 244.5,199.5C 232.745,212.251 221.745,225.584 211.5,239.5C 202.833,231.5 194.5,223.167 186.5,214.5C 192.296,196.581 199.962,179.581 209.5,163.5 Z"/></g>
<g><path style="opacity:1" fill="#fdb614" d="M 276.5,178.5 C 290.833,192.167 304.833,206.167 318.5,220.5C 311.825,220.666 305.158,220.5 298.5,220C 283.18,214.812 282.514,216.812 296.5,226C 311.917,234.25 328.25,237.417 345.5,235.5C 337.392,241.551 328.725,246.551 319.5,250.5C 318.508,250.328 317.842,250.662 317.5,251.5C 314.287,251.81 311.287,251.477 308.5,250.5C 309.552,250.649 310.552,250.483 311.5,250C 294.299,232.632 276.965,215.465 259.5,198.5C 264.692,191.462 270.359,184.795 276.5,178.5 Z"/></g>
<g><path style="opacity:1" fill="#fec211" d="M 259.5,198.5 C 276.965,215.465 294.299,232.632 311.5,250C 310.552,250.483 309.552,250.649 308.5,250.5C 296.498,248.888 284.498,247.388 272.5,246C 280.072,250.903 288.072,254.736 296.5,257.5C 292.19,258.08 287.857,258.414 283.5,258.5C 278.821,258.666 274.155,258.499 269.5,258C 258.632,246.965 247.632,236.131 236.5,225.5C 243.465,215.902 251.132,206.902 259.5,198.5 Z"/></g>
<g><path style="opacity:0.999" fill="#fdb814" d="M 186.5,214.5 C 194.5,223.167 202.833,231.5 211.5,239.5C 205.072,248.587 199.072,257.921 193.5,267.5C 186.5,260.833 179.5,254.167 172.5,247.5C 176.373,236.096 181.04,225.096 186.5,214.5 Z"/></g>
<g><path style="opacity:0.98" fill="#fefbf7" d="M 308.5,250.5 C 311.287,251.477 314.287,251.81 317.5,251.5C 318.492,251.672 319.158,251.338 319.5,250.5C 321.527,250.338 323.527,250.505 325.5,251C 322.989,253.843 320.156,256.343 317,258.5C 310.287,258.719 303.454,258.385 296.5,257.5C 288.072,254.736 280.072,250.903 272.5,246C 284.498,247.388 296.498,248.888 308.5,250.5 Z"/></g>
<g><path style="opacity:0.989" fill="#fcb217" d="M 172.5,247.5 C 179.5,254.167 186.5,260.833 193.5,267.5C 188.657,277.857 183.324,287.857 177.5,297.5C 172.443,292.438 167.11,287.772 161.5,283.5C 164.529,277.199 166.363,270.532 167,263.5C 168.011,262.663 169.178,262.33 170.5,262.5C 170.972,257.433 171.639,252.433 172.5,247.5 Z"/></g>
<g><path style="opacity:1" fill="#fdba12" d="M 236.5,225.5 C 247.632,236.131 258.632,246.965 269.5,258C 274.155,258.499 278.821,258.666 283.5,258.5C 279.347,259.166 275.013,259.499 270.5,259.5C 260.712,259.36 251.045,258.527 241.5,257C 249.016,265.18 255.183,274.347 260,284.5C 265.727,293.283 273.893,297.783 284.5,298C 273.74,303.56 263.906,302.06 255,293.5C 257.201,300.348 262.035,304.514 269.5,306C 272.167,306.333 274.833,306.667 277.5,307C 267.27,313.21 256.604,314.043 245.5,309.5C 244.707,310.355 245.04,311.189 246.5,312C 250.007,314.254 253.673,316.254 257.5,318C 252.552,319.05 247.552,319.55 242.5,319.5C 242.611,318.883 242.944,318.383 243.5,318C 228.245,303.248 213.579,288.081 199.5,272.5C 210.72,255.948 223.054,240.281 236.5,225.5 Z"/></g>
<g><path style="opacity:0.996" fill="#fcb216" d="M 199.5,272.5 C 213.579,288.081 228.245,303.248 243.5,318C 242.944,318.383 242.611,318.883 242.5,319.5C 230.386,321.528 218.386,324.195 206.5,327.5C 198.536,319.035 190.369,310.702 182,302.5C 181.517,301.552 181.351,300.552 181.5,299.5C 186.769,289.947 192.769,280.947 199.5,272.5 Z"/></g>
<g><path style="opacity:1" fill="#fbab1a" d="M 161.5,283.5 C 167.11,287.772 172.443,292.438 177.5,297.5C 171.716,309.052 166.55,320.719 162,332.5C 168.526,321.437 175.026,310.437 181.5,299.5C 181.351,300.552 181.517,301.552 182,302.5C 190.369,310.702 198.536,319.035 206.5,327.5C 189.893,333.023 172.893,337.023 155.5,339.5C 152.167,345.476 148.501,351.143 144.5,356.5C 142.139,354.806 140.139,352.806 138.5,350.5C 142.201,341.239 146.201,332.072 150.5,323C 147.879,315.789 148.045,308.623 151,301.5C 153.77,294.944 157.27,288.944 161.5,283.5 Z"/></g>
<g><path style="opacity:0.998" fill="#f89b1d" d="M 138.5,350.5 C 140.139,352.806 142.139,354.806 144.5,356.5C 137.307,374.076 130.307,391.743 123.5,409.5C 122.735,410.66 121.735,411.66 120.5,412.5C 119.702,412.043 119.369,411.376 119.5,410.5C 119.336,407.813 119.503,405.146 120,402.5C 122.805,394.585 125.305,386.585 127.5,378.5C 126.571,377.685 125.571,376.852 124.5,376C 125.056,375.617 125.389,375.117 125.5,374.5C 126.643,374.092 127.643,373.425 128.5,372.5C 132.396,365.379 135.729,358.045 138.5,350.5 Z"/></g>
<g><path style="opacity:0.035" fill="#fefffe" d="M 574.5,438.5 C 574.5,449.167 574.5,459.833 574.5,470.5C 558.181,480.555 540.515,487.389 521.5,491C 497.895,495.741 474.228,498.908 450.5,500.5C 430.833,500.5 411.167,500.5 391.5,500.5C 357.981,498.635 324.981,492.968 292.5,483.5C 260.024,492.993 227.024,498.66 193.5,500.5C 173.833,500.5 154.167,500.5 134.5,500.5C 99.8119,498.849 65.8119,492.683 32.5,482C 20.6522,478.341 10.8188,471.841 3,462.5C -0.509978,455.194 0.490022,448.528 6,442.5C 17.9336,432.783 31.4336,426.117 46.5,422.5C 48.8644,429.034 53.1977,433.868 59.5,437C 70.8196,442.239 82.4863,446.072 94.5,448.5C 91.2258,456.988 93.8924,463.321 102.5,467.5C 122.435,476.901 143.435,482.401 165.5,484C 187.144,485.515 208.811,485.849 230.5,485C 251.291,482.923 271.957,480.09 292.5,476.5C 313.043,480.09 333.709,482.923 354.5,485C 391.012,487.846 427.012,484.846 462.5,476C 472.758,473.122 481.925,468.289 490,461.5C 492.788,457.33 493.121,452.997 491,448.5C 482.383,440.273 472.217,434.773 460.5,432C 420.092,422.271 379.426,420.104 338.5,425.5C 328.058,425.32 317.725,425.987 307.5,427.5C 296.805,428.207 286.138,429.207 275.5,430.5C 229.427,420.42 183.094,419.92 136.5,429C 124.37,431.317 113.037,435.484 102.5,441.5C 86.9056,440.436 72.2389,436.27 58.5,429C 55.5766,426.584 53.2433,423.75 51.5,420.5C 73.8748,415.215 96.5415,411.882 119.5,410.5C 119.369,411.376 119.702,412.043 120.5,412.5C 121.735,411.66 122.735,410.66 123.5,409.5C 167.43,406.589 211.096,408.756 254.5,416C 267.332,418.541 279.999,421.708 292.5,425.5C 334.437,413.247 377.27,407.581 421,408.5C 460.445,407.809 499.279,412.309 537.5,422C 550.808,425.485 563.142,430.985 574.5,438.5 Z"/></g>
<g><path style="opacity:0.152" fill="#f5f5f6" d="M 94.5,448.5 C 109.128,450.229 123.795,451.563 138.5,452.5C 138.298,454.989 138.798,457.323 140,459.5C 148.638,466.496 158.471,470.996 169.5,473C 208.063,480.366 246.563,480.199 285,472.5C 285.333,473.167 285.667,473.833 286,474.5C 287.085,473.707 288.252,473.04 289.5,472.5C 303.258,472.978 317.258,474.478 331.5,477C 364.714,480.65 397.38,477.984 429.5,469C 435.219,466.725 440.385,463.558 445,459.5C 447.257,454.805 446.757,450.472 443.5,446.5C 456.588,446.635 469.588,447.635 482.5,449.5C 483.696,449.154 483.696,448.654 482.5,448C 464.429,443.398 446.096,440.565 427.5,439.5C 422.36,438.512 417.026,438.179 411.5,438.5C 396.654,437.261 381.654,437.261 366.5,438.5C 353.828,439.072 341.161,439.738 328.5,440.5C 321.57,440.823 314.736,440.823 308,440.5C 307.5,441 307,441.5 306.5,442C 302,442.167 297.5,442.333 293,442.5C 287.109,442.421 281.609,442.087 276.5,441.5C 288.291,439.021 300.291,437.021 312.5,435.5C 340.71,430.893 369.043,429.56 397.5,431.5C 400.225,428.849 399.558,427.516 395.5,427.5C 393.962,427.673 392.462,428.006 391,428.5C 373.61,425.897 356.11,424.897 338.5,425.5C 379.426,420.104 420.092,422.271 460.5,432C 472.217,434.773 482.383,440.273 491,448.5C 493.121,452.997 492.788,457.33 490,461.5C 481.925,468.289 472.758,473.122 462.5,476C 427.012,484.846 391.012,487.846 354.5,485C 333.709,482.923 313.043,480.09 292.5,476.5C 271.957,480.09 251.291,482.923 230.5,485C 208.811,485.849 187.144,485.515 165.5,484C 143.435,482.401 122.435,476.901 102.5,467.5C 93.8924,463.321 91.2258,456.988 94.5,448.5 Z"/></g>
<g><path style="opacity:0.996" fill="#fcb524" d="M 338.5,425.5 C 356.11,424.897 373.61,425.897 391,428.5C 392.462,428.006 393.962,427.673 395.5,427.5C 399.558,427.516 400.225,428.849 397.5,431.5C 369.043,429.56 340.71,430.893 312.5,435.5C 312.611,434.883 312.944,434.383 313.5,434C 311.294,431.963 309.294,429.797 307.5,427.5C 317.725,425.987 328.058,425.32 338.5,425.5 Z"/></g>
<g><path style="opacity:1" fill="#fbad20" d="M 307.5,427.5 C 309.294,429.797 311.294,431.963 313.5,434C 312.944,434.383 312.611,434.883 312.5,435.5C 300.291,437.021 288.291,439.021 276.5,441.5C 274.5,441.5 272.5,441.5 270.5,441.5C 268.372,438.87 266.039,436.37 263.5,434C 264.056,433.617 264.389,433.117 264.5,432.5C 268.232,432.016 271.899,431.349 275.5,430.5C 286.138,429.207 296.805,428.207 307.5,427.5 Z"/></g>
<g><path style="opacity:0.283" fill="#f2f2f3" d="M 275.5,430.5 C 271.899,431.349 268.232,432.016 264.5,432.5C 238.768,436.416 213.102,439.749 187.5,442.5C 169.507,443.138 151.507,443.471 133.5,443.5C 123.163,442.875 112.83,442.208 102.5,441.5C 113.037,435.484 124.37,431.317 136.5,429C 183.094,419.92 229.427,420.42 275.5,430.5 Z"/></g>
<g><path style="opacity:1" fill="#f9a326" d="M 264.5,432.5 C 264.389,433.117 264.056,433.617 263.5,434C 266.039,436.37 268.372,438.87 270.5,441.5C 246.01,446.137 221.343,449.471 196.5,451.5C 196.918,450.778 197.584,450.278 198.5,450C 196.167,447.667 193.833,445.333 191.5,443C 190.207,442.51 188.873,442.343 187.5,442.5C 213.102,439.749 238.768,436.416 264.5,432.5 Z"/></g>
<g><path style="opacity:1" fill="#f68d32" d="M 411.5,438.5 C 406.833,438.5 402.167,438.5 397.5,438.5C 397.5,440.833 397.5,443.167 397.5,445.5C 406.5,445.5 415.5,445.5 424.5,445.5C 430.358,445.178 436.025,445.511 441.5,446.5C 422.149,446.259 402.815,446.592 383.5,447.5C 380.167,447.5 376.833,447.5 373.5,447.5C 370.167,447.5 366.833,447.5 363.5,447.5C 363.5,444.833 363.5,442.167 363.5,439.5C 364.791,439.737 365.791,439.404 366.5,438.5C 381.654,437.261 396.654,437.261 411.5,438.5 Z"/></g>
<g><path style="opacity:0.998" fill="#f79322" d="M 125.5,374.5 C 125.389,375.117 125.056,375.617 124.5,376C 125.571,376.852 126.571,377.685 127.5,378.5C 102.968,378.131 80.3013,384.298 59.5,397C 52.1161,403.32 49.4494,411.153 51.5,420.5C 53.2433,423.75 55.5766,426.584 58.5,429C 72.2389,436.27 86.9056,440.436 102.5,441.5C 112.83,442.208 123.163,442.875 133.5,443.5C 139.626,443.914 144.293,446.914 147.5,452.5C 144.5,452.5 141.5,452.5 138.5,452.5C 123.795,451.563 109.128,450.229 94.5,448.5C 82.4863,446.072 70.8196,442.239 59.5,437C 53.1977,433.868 48.8644,429.034 46.5,422.5C 44.2259,408.216 49.5592,397.716 62.5,391C 82.4535,381.595 103.454,376.095 125.5,374.5 Z"/></g>
<g><path style="opacity:1" fill="#f36f23" d="M 411.5,438.5 C 417.026,438.179 422.36,438.512 427.5,439.5C 426.5,439.5 425.5,439.5 424.5,439.5C 424.5,441.5 424.5,443.5 424.5,445.5C 415.5,445.5 406.5,445.5 397.5,445.5C 397.5,443.167 397.5,440.833 397.5,438.5C 402.167,438.5 406.833,438.5 411.5,438.5 Z"/></g>
<g><path style="opacity:1" fill="#f9a325" d="M 366.5,438.5 C 365.791,439.404 364.791,439.737 363.5,439.5C 363.5,442.167 363.5,444.833 363.5,447.5C 366.833,447.5 370.167,447.5 373.5,447.5C 366.833,448.167 360.167,448.833 353.5,449.5C 347.477,449.502 341.477,449.835 335.5,450.5C 335.5,447.5 335.5,444.5 335.5,441.5C 333.167,441.5 330.833,441.5 328.5,441.5C 328.5,441.167 328.5,440.833 328.5,440.5C 341.161,439.738 353.828,439.072 366.5,438.5 Z"/></g>
<g><path style="opacity:0.998" fill="#f15926" d="M 427.5,439.5 C 446.096,440.565 464.429,443.398 482.5,448C 483.696,448.654 483.696,449.154 482.5,449.5C 469.588,447.635 456.588,446.635 443.5,446.5C 442.833,446.5 442.167,446.5 441.5,446.5C 436.025,445.511 430.358,445.178 424.5,445.5C 424.5,443.5 424.5,441.5 424.5,439.5C 425.5,439.5 426.5,439.5 427.5,439.5 Z"/></g>
<g><path style="opacity:1" fill="#fcb31c" d="M 328.5,441.5 C 330.833,441.5 333.167,441.5 335.5,441.5C 335.5,444.5 335.5,447.5 335.5,450.5C 328.5,451.167 321.5,451.833 314.5,452.5C 314.253,449.061 314.586,445.728 315.5,442.5C 319.785,441.705 324.119,441.372 328.5,441.5 Z"/></g>
<g><path style="opacity:1" fill="#f89b26" d="M 187.5,442.5 C 188.873,442.343 190.207,442.51 191.5,443C 193.833,445.333 196.167,447.667 198.5,450C 197.584,450.278 196.918,450.778 196.5,451.5C 191.507,451.916 186.507,452.249 181.5,452.5C 170.155,453.713 158.822,453.713 147.5,452.5C 144.293,446.914 139.626,443.914 133.5,443.5C 151.507,443.471 169.507,443.138 187.5,442.5 Z"/></g>
<g><path style="opacity:0.641" fill="#e3e0dc" d="M 328.5,440.5 C 328.5,440.833 328.5,441.167 328.5,441.5C 324.119,441.372 319.785,441.705 315.5,442.5C 271.006,448.592 226.339,452.925 181.5,455.5C 181.5,454.5 181.5,453.5 181.5,452.5C 186.507,452.249 191.507,451.916 196.5,451.5C 221.343,449.471 246.01,446.137 270.5,441.5C 272.5,441.5 274.5,441.5 276.5,441.5C 281.609,442.087 287.109,442.421 293,442.5C 297.5,442.333 302,442.167 306.5,442C 307,441.5 307.5,441 308,440.5C 314.736,440.823 321.57,440.823 328.5,440.5 Z"/></g>
<g><path style="opacity:1" fill="#fec522" d="M 315.5,442.5 C 314.586,445.728 314.253,449.061 314.5,452.5C 287.525,455.109 260.525,457.442 233.5,459.5C 223.516,460.213 213.516,460.547 203.5,460.5C 183.782,460.842 164.115,460.008 144.5,458C 144.043,457.586 143.709,457.086 143.5,456.5C 156.149,455.501 168.816,455.168 181.5,455.5C 226.339,452.925 271.006,448.592 315.5,442.5 Z"/></g>
<g><path style="opacity:0.286" fill="#eeeff0" d="M 441.5,446.5 C 442.167,446.5 442.833,446.5 443.5,446.5C 446.757,450.472 447.257,454.805 445,459.5C 440.385,463.558 435.219,466.725 429.5,469C 397.38,477.984 364.714,480.65 331.5,477C 317.258,474.478 303.258,472.978 289.5,472.5C 288.252,473.04 287.085,473.707 286,474.5C 285.667,473.833 285.333,473.167 285,472.5C 246.563,480.199 208.063,480.366 169.5,473C 158.471,470.996 148.638,466.496 140,459.5C 138.798,457.323 138.298,454.989 138.5,452.5C 141.5,452.5 144.5,452.5 147.5,452.5C 158.822,453.713 170.155,453.713 181.5,452.5C 181.5,453.5 181.5,454.5 181.5,455.5C 168.816,455.168 156.149,455.501 143.5,456.5C 143.709,457.086 144.043,457.586 144.5,458C 164.115,460.008 183.782,460.842 203.5,460.5C 208.002,463.387 213.002,465.22 218.5,466C 227.553,466.929 236.72,468.096 246,469.5C 247.525,468.28 249.359,467.613 251.5,467.5C 257.396,468.113 263.396,468.447 269.5,468.5C 270.658,465.066 272.491,465.066 275,468.5C 275.57,465.156 276.736,464.823 278.5,467.5C 279.192,466.975 279.692,466.308 280,465.5C 289,465.5 298,465.5 307,465.5C 308.396,467.527 310.062,467.86 312,466.5C 312.626,468.991 313.459,468.991 314.5,466.5C 316.285,467.663 318.285,468.33 320.5,468.5C 326.218,467.8 332.218,467.633 338.5,468C 339,468.5 339.5,469 340,469.5C 351.338,468.752 362.838,466.918 374.5,464C 380.153,462.508 384.82,459.508 388.5,455C 388.182,451.53 386.516,449.03 383.5,447.5C 402.815,446.592 422.149,446.259 441.5,446.5 Z"/></g>
<g><path style="opacity:0.547" fill="#e5e5e5" d="M 373.5,447.5 C 376.833,447.5 380.167,447.5 383.5,447.5C 386.516,449.03 388.182,451.53 388.5,455C 384.82,459.508 380.153,462.508 374.5,464C 362.838,466.918 351.338,468.752 340,469.5C 339.5,469 339,468.5 338.5,468C 332.218,467.633 326.218,467.8 320.5,468.5C 318.285,468.33 316.285,467.663 314.5,466.5C 313.459,468.991 312.626,468.991 312,466.5C 310.062,467.86 308.396,467.527 307,465.5C 298,465.5 289,465.5 280,465.5C 279.692,466.308 279.192,466.975 278.5,467.5C 276.736,464.823 275.57,465.156 275,468.5C 272.491,465.066 270.658,465.066 269.5,468.5C 263.396,468.447 257.396,468.113 251.5,467.5C 249.359,467.613 247.525,468.28 246,469.5C 236.72,468.096 227.553,466.929 218.5,466C 213.002,465.22 208.002,463.387 203.5,460.5C 213.516,460.547 223.516,460.213 233.5,459.5C 240.435,462.321 247.768,463.821 255.5,464C 274.663,463.581 291.497,463.081 306,462.5C 306.5,463 307,463.5 307.5,464C 323.289,465.35 338.956,463.683 354.5,459C 358.872,456.805 359.539,453.805 356.5,450C 355.552,449.517 354.552,449.351 353.5,449.5C 360.167,448.833 366.833,448.167 373.5,447.5 Z"/></g>
<g><path style="opacity:0.722" fill="#dbdbda" d="M 353.5,449.5 C 354.552,449.351 355.552,449.517 356.5,450C 359.539,453.805 358.872,456.805 354.5,459C 338.956,463.683 323.289,465.35 307.5,464C 307,463.5 306.5,463 306,462.5C 291.497,463.081 274.663,463.581 255.5,464C 247.768,463.821 240.435,462.321 233.5,459.5C 260.525,457.442 287.525,455.109 314.5,452.5C 321.5,451.833 328.5,451.167 335.5,450.5C 341.477,449.835 347.477,449.502 353.5,449.5 Z"/></g>
</svg>
